<svg width="266" height="114" viewBox="0 0 266 114" fill="none" xmlns="http://www.w3.org/2000/svg">
<g clip-path="url(#clip0_2296_498)">
<path d="M7.33677 84.8073C5.62923 76.0816 14.561 62.0413 25.8382 52.0151C10.0576 63.0401 -1.74506 78.8897 0.206406 89.2173C4.74732 113.246 64.0044 121.143 132.643 106.895L137.222 105.896C67.5508 115.64 11.8214 107.724 7.33677 84.8073Z" fill="#BE1E2D"/>
<path d="M258.663 29.136C260.408 37.9183 251.402 51.9398 240.162 61.9282C255.905 50.9221 267.745 35.0725 265.775 24.7637C261.234 0.753787 202.033 -7.14273 133.357 7.06723L128.778 8.04722C198.393 -1.63967 254.122 6.25684 258.663 29.136Z" fill="#BE1E2D"/>
<path d="M142.326 20.2783L139.642 32.9052H121.854L115.868 61.2874L109.901 89.5566H91.3248L96.5788 64.6797L103.315 32.9052H85.9958V32.6414L88.6041 20.3537L142.326 20.2783Z" fill="#191919"/>
<path d="M199.275 20.2783L196.723 32.9052H179.366L173.305 61.4005L167.338 89.5189H148.799L154.053 64.8305L160.79 32.9429H142.926L145.61 20.316L199.275 20.2783Z" fill="#191919"/>
<path d="M71.7056 33.4556C78.1546 32.1337 82.6331 27.3742 81.7087 22.8249C80.7843 18.2755 74.807 15.6592 68.3581 16.9811C61.9091 18.3029 57.4305 23.0625 58.3549 27.6118C59.2793 32.1611 65.2566 34.7774 71.7056 33.4556Z" fill="#191919"/>
<path d="M217.758 33.7201C224.211 32.425 228.708 27.6849 227.802 23.1327C226.897 18.5806 220.931 15.9402 214.478 17.2353C208.025 18.5303 203.528 23.2705 204.434 27.8226C205.34 32.3748 211.305 35.0152 217.758 33.7201Z" fill="#191919"/>
<path d="M211.866 89.5188L222.655 38.4459H204.304L193.402 89.5188H211.866Z" fill="#191919"/>
<path d="M66.0497 89.5188L76.9329 38.4459H58.3001L47.4732 89.5188H66.0497Z" fill="#191919"/>
<path d="M146.792 98.9796H149.4C150.511 98.934 151.622 99.0806 152.684 99.4131C153.374 99.6732 153.957 100.158 154.342 100.79C154.726 101.421 154.889 102.164 154.804 102.9C154.733 103.784 154.407 104.629 153.866 105.331C153.324 106.031 152.605 106.572 151.783 106.895C150.441 107.277 149.049 107.455 147.655 107.423L146.36 113.585H143.545L146.792 98.9796ZM148.236 104.841C149.258 104.919 150.285 104.764 151.239 104.388C151.477 104.243 151.676 104.042 151.82 103.802C151.963 103.563 152.047 103.292 152.064 103.013C152.086 102.866 152.077 102.717 152.038 102.574C151.999 102.432 151.931 102.299 151.839 102.183C151.753 102.055 151.643 101.946 151.514 101.862C151.385 101.778 151.24 101.72 151.089 101.693C150.408 101.637 149.724 101.637 149.043 101.693L148.236 104.841Z" fill="#191919"/>
<path d="M156.099 102.786H158.894L160.077 108.798L164.111 102.786H167.001L159.683 113.548H158.407L156.099 102.786Z" fill="#191919"/>
<path d="M170.247 98.7911H172.893L171.992 102.787H173.643L173.155 105.067H171.466L169.59 113.548H166.85L168.727 105.067H167.451L167.939 102.787H169.271L170.247 98.7911Z" fill="#191919"/>
<path d="M175.238 110.532C175.451 110.523 175.664 110.561 175.862 110.642C176.059 110.724 176.237 110.847 176.383 111.003C176.53 111.157 176.64 111.341 176.705 111.544C176.77 111.746 176.788 111.961 176.758 112.172C176.708 112.628 176.495 113.05 176.157 113.359C175.823 113.665 175.39 113.839 174.938 113.849C174.726 113.857 174.514 113.817 174.32 113.732C174.125 113.647 173.951 113.52 173.812 113.359C173.655 113.209 173.537 113.022 173.468 112.815C173.399 112.608 173.382 112.387 173.418 112.172C173.455 111.722 173.663 111.303 174 111.003C174.164 110.846 174.359 110.723 174.571 110.642C174.784 110.561 175.011 110.524 175.238 110.532Z" fill="#191919"/>
<path d="M182.988 98.9796H185.765L183.006 111.079H187.641L187.116 113.585H179.61L182.988 98.9796Z" fill="#191919"/>
<path d="M192.144 98.7911H194.809L193.89 102.787H195.56L195.147 105.067H193.439L191.563 113.548H188.88L190.756 105.067H189.461L189.949 102.787H191.281L192.144 98.7911Z" fill="#191919"/>
<path d="M206.687 98.7911H209.37L205.955 113.698H203.309L203.572 112.549C203.064 113.025 202.48 113.414 201.846 113.698C201.289 113.911 200.696 114.013 200.1 114C199.457 114.05 198.811 113.932 198.226 113.658C197.641 113.384 197.136 112.963 196.76 112.436C195.977 111.347 195.641 109.997 195.822 108.666C195.951 107.538 196.364 106.461 197.023 105.538C197.629 104.611 198.446 103.843 199.406 103.295C200.32 102.788 201.345 102.516 202.39 102.504C203.044 102.488 203.691 102.644 204.266 102.956C204.807 103.274 205.249 103.737 205.542 104.294L206.687 98.7911ZM200.926 111.644C201.58 111.66 202.227 111.504 202.803 111.192C203.365 110.853 203.835 110.381 204.172 109.816C204.549 109.257 204.77 108.606 204.81 107.931C204.926 107.314 204.793 106.676 204.442 106.157C204.09 105.638 203.548 105.28 202.934 105.161C202.728 105.133 202.52 105.133 202.315 105.161C201.368 105.179 200.463 105.556 199.782 106.217C199.057 106.929 198.611 107.878 198.524 108.893C198.48 109.255 198.51 109.623 198.613 109.973C198.717 110.323 198.891 110.648 199.125 110.928C199.358 111.168 199.639 111.356 199.949 111.48C200.26 111.603 200.593 111.659 200.926 111.644Z" fill="#191919"/>
<path d="M211.04 110.532C211.25 110.524 211.46 110.561 211.655 110.643C211.849 110.724 212.024 110.847 212.166 111.003C212.317 111.154 212.429 111.339 212.495 111.542C212.56 111.745 212.576 111.961 212.541 112.172C212.491 112.628 212.278 113.05 211.941 113.359C211.606 113.665 211.173 113.839 210.721 113.849C210.509 113.857 210.298 113.817 210.103 113.732C209.908 113.647 209.735 113.52 209.595 113.359C209.441 113.207 209.327 113.019 209.262 112.812C209.196 112.605 209.182 112.386 209.22 112.172C209.231 111.949 209.286 111.731 209.383 111.53C209.479 111.329 209.616 111.15 209.783 111.003C209.95 110.845 210.148 110.721 210.364 110.64C210.58 110.559 210.81 110.523 211.04 110.532Z" fill="#191919"/>
</g>
<defs>
<clipPath id="clip0_2296_498">
<rect width="266" height="114" fill="white"/>
</clipPath>
</defs>
</svg>
